<?xml version="1.0" encoding="iso-8859-1"?>
<!-- Generator: Adobe Illustrator 19.0.0, SVG Export Plug-In . SVG Version: 6.00 Build 0)  -->
<svg version="1.1" id="Layer_1" xmlns="http://www.w3.org/2000/svg" xmlns:xlink="http://www.w3.org/1999/xlink" x="0px" y="0px"
	 viewBox="0 0 512.001 512.001" style="enable-background:new 0 0 512.001 512.001;" xml:space="preserve">
<polygon style="fill:#FFD159;" points="503.83,51.743 503.83,503.828 471.149,492.335 427.574,266.293 471.149,40.25 "/>
<polygon style="fill:#FFE08F;" points="471.149,40.25 471.149,492.335 379.915,460.254 325.447,234.211 379.915,8.169 "/>
<polygon style="fill:#FFF3D4;" points="379.915,8.169 379.915,460.254 256,503.828 190.638,277.786 256,51.743 "/>
<polygon style="fill:#FFE08F;" points="256,51.743 256,503.828 132.085,460.254 88.511,234.211 132.085,8.169 "/>
<polygon style="fill:#FFF3D4;" points="132.085,8.169 132.085,460.254 8.17,503.828 8.17,51.743 "/>
<g>
	<path style="fill:#FFD159;" d="M132.085,468.426c-4.512,0-8.17-3.658-8.17-8.17v-227.24c0-4.512,3.658-8.17,8.17-8.17
		s8.17,3.658,8.17,8.17v227.24C140.255,464.768,136.597,468.426,132.085,468.426z"/>
	<path style="fill:#FFD159;" d="M132.085,85.627c-4.512,0-8.17-3.658-8.17-8.17V8.171c0-4.512,3.658-8.17,8.17-8.17
		s8.17,3.658,8.17,8.17v69.286C140.255,81.968,136.597,85.627,132.085,85.627z"/>
	<path style="fill:#FFD159;" d="M256,512.001c-4.512,0-8.17-3.658-8.17-8.17V51.745c0-4.512,3.658-8.17,8.17-8.17
		s8.17,3.658,8.17,8.17V503.83C264.17,508.342,260.512,512.001,256,512.001z"/>
	<path style="fill:#FFD159;" d="M379.915,468.426c-4.512,0-8.17-3.658-8.17-8.17V328.333c0-4.512,3.658-8.17,8.17-8.17
		c4.512,0,8.17,3.658,8.17,8.17v131.923C388.085,464.768,384.427,468.426,379.915,468.426z"/>
	<path style="fill:#FFD159;" d="M379.915,303.824c-4.512,0-8.17-3.658-8.17-8.17V8.171c0-4.512,3.658-8.17,8.17-8.17
		c4.512,0,8.17,3.658,8.17,8.17v287.483C388.085,300.165,384.427,303.824,379.915,303.824z"/>
</g>
<path d="M256,112.369L134.795,69.748c-2.499-0.879-5.27-0.492-7.433,1.04c-2.162,1.532-3.448,4.018-3.448,6.667v149.772
	l-53.093,18.671c-3.271,1.15-5.46,4.24-5.46,7.707v51.744c0,4.512,3.658,8.17,8.17,8.17c4.512,0,8.17-3.658,8.17-8.17v-45.956
	l53.093-18.671c3.271-1.15,5.46-4.24,5.46-7.707V88.989l45.617,16.041v44.759c0,4.512,3.658,8.17,8.17,8.17
	c4.512,0,8.17-3.658,8.17-8.17v-39.013l51.077,17.961c1.754,0.617,3.666,0.617,5.421,0l51.077-17.961v39.012
	c0,4.512,3.658,8.17,8.17,8.17c4.512,0,8.17-3.658,8.17-8.17V105.03l53.787-18.915l50.383,17.718v138.239l-47.673-16.764
	c-1.754-0.617-3.667-0.617-5.421,0l-51.077,17.961v-39.012c0-4.512-3.658-8.17-8.17-8.17c-4.512,0-8.17,3.658-8.17,8.17v44.759
	L256,267.93l-53.787-18.915v-44.758c0-4.512-3.658-8.17-8.17-8.17c-4.512,0-8.17,3.658-8.17,8.17v50.545
	c0,3.467,2.189,6.558,5.46,7.707l61.957,21.787c0.877,0.308,1.793,0.463,2.71,0.463s1.833-0.155,2.71-0.463l121.205-42.621
	l50.383,17.717v140.633l-47.673-16.764c-1.754-0.617-3.666-0.617-5.421,0L256,425.884l-121.205-42.621
	c-1.754-0.617-3.666-0.617-5.421,0l-47.673,16.764v-40.209c0-4.512-3.658-8.17-8.17-8.17c-4.512,0-8.17,3.658-8.17,8.17v51.744
	c0,2.65,1.285,5.135,3.448,6.667c2.163,1.532,4.934,1.918,7.433,1.04l55.843-19.637l121.205,42.621
	c0.877,0.308,1.793,0.463,2.71,0.463s1.833-0.155,2.71-0.463l121.205-42.621l55.843,19.637c2.499,0.88,5.27,0.491,7.433-1.04
	c2.162-1.532,3.448-4.018,3.448-6.667V98.046c0-3.467-2.189-6.558-5.46-7.707l-58.553-20.59c-1.754-0.617-3.667-0.617-5.421,0
	L256,112.369z"/>
<path d="M506.54,44.038L382.625,0.464c-1.753-0.617-3.666-0.617-5.421,0L256,43.085L134.794,0.464c-1.753-0.617-3.666-0.617-5.421,0
	L5.459,44.038C2.189,45.187,0,48.278,0,51.745V503.83c0,2.65,1.285,5.135,3.448,6.667c2.163,1.532,4.934,1.919,7.433,1.04
	l121.205-42.621l121.206,42.621c1.754,0.617,3.666,0.617,5.421,0l121.203-42.621l121.206,42.621c0.882,0.31,1.797,0.463,2.709,0.463
	c1.67,0,3.325-0.512,4.723-1.503c2.162-1.532,3.448-4.018,3.448-6.667V51.745C512,48.278,509.811,45.187,506.54,44.038z
	 M495.66,492.297l-113.035-39.749c-1.753-0.617-3.666-0.617-5.421,0L256,495.17l-121.206-42.621
	c-0.877-0.308-1.793-0.463-2.71-0.463s-1.833,0.155-2.71,0.463L16.34,492.297V57.533l115.745-40.702l121.206,42.621
	c1.754,0.617,3.666,0.617,5.421,0l121.203-42.621L495.66,57.533V492.297z"/>
<g>
</g>
<g>
</g>
<g>
</g>
<g>
</g>
<g>
</g>
<g>
</g>
<g>
</g>
<g>
</g>
<g>
</g>
<g>
</g>
<g>
</g>
<g>
</g>
<g>
</g>
<g>
</g>
<g>
</g>
</svg>
